<svg xmlns="http://www.w3.org/2000/svg" width="21" height="21" viewBox="0 0 21 21">
    <g transform="translate(-71 -594)">
        <circle cx="10.5" cy="10.5" r="10.5" fill="#4a4a4a" transform="translate(71 594)"/>
        <g>
            <g>
                <path fill="#fff" d="M.224 10.088a.763.763 0 0 0 1.08 0l3.512-3.512 3.512 3.512a.764.764 0 1 0 1.08-1.08L5.9 5.5l3.328-3.336a.764.764 0 0 0-1.08-1.08L4.816 4.415 1.484 1.084A.764.764 0 0 0 .4 2.164L3.736 5.5.224 9.007a.764.764 0 0 0 0 1.081z" transform="translate(76.684 598.914) translate(0 .86) translate(0 -.86)"/>
            </g>
        </g>
    </g>
</svg>
