<svg xmlns="http://www.w3.org/2000/svg" width="217.762" height="71.081" viewBox="0 0 217.762 71.081">
    <defs>
        <style>
            .cls-1,.cls-2{fill:#fff}.cls-1{fill-rule:evenodd}
        </style>
    </defs>
    <g id="diver_logo_typo.24491f1" transform="translate(-28.113 -21.455)">
        <path id="Path_7" d="M119.906 60.171a20.752 20.752 0 1 0-23.86 20.477c-2.794 3.063-5.606 6.1-8.417 9.173a2.962 2.962 0 0 0-.689 2.8c.6 2.047 3.592 1.63 5.79 1.63 5.1 0 5.388.6 7.33-1.392 3.592-3.659 7.2-7.881 10.447-11.853 8.968 0 17.911-.009 26.888-.113a2.933 2.933 0 0 0 2.886-2.917v-5.039a2.85 2.85 0 0 0-2.881-2.847c-6.679.079-13.367.079-20.059.067a20.561 20.561 0 0 0 2.565-9.986zm-10.76 0a9.992 9.992 0 1 1-9.992-9.97 9.981 9.981 0 0 1 9.992 9.97z" class="cls-1" transform="translate(-21.248 -7.609)"/>
        <path id="Path_8" d="M294.947 59.209a31.82 31.82 0 0 1 33.359-30.192l3.225.138c.029-.108.058-.217.088-.321a10.232 10.232 0 0 1 19.92 1.18 42.035 42.035 0 0 1 .561 4.286c.063.773.145 1.771.387 3.823.18 1.513.338 3.038.468 4.568a31.82 31.82 0 1 1-58.007 16.521zM342.1 45.034a21.951 21.951 0 1 0 4.427 25.416c4.773-8.85 4.343-21.79 2.873-33.568-.287-2.3-.349-2.9-.432-3.493-.076-.541-.17-1.079-.465-2.884a7.337 7.337 0 0 0-14.482 2.372c.327 1.983.412 2.468.482 2.955s.122.955.374 2.838c2.973 1.671 5.487 3.513 7.223 6.364zm-24.321 15.288a8.989 8.989 0 1 1 8.542 9.394 8.98 8.98 0 0 1-8.542-9.394z" class="cls-1" transform="translate(-112.727)"/>
        <path id="Path_9" d="M237.833 80.928c11.7-.4 20.823-8.853 20.823-20.731a20.645 20.645 0 0 0-20.823-20.706c-4.824 0-9.5-.088-14.34-.038a2.834 2.834 0 0 0-2.79 2.813v4.868a2.762 2.762 0 0 0 2.79 2.755c4.971-.054 9.853.046 14.82.054a10.275 10.275 0 0 1 9.809 10.257c0 5.106-4.2 10.107-9.436 10.178l-15.167-.008a2.785 2.785 0 0 0-2.811 2.78v4.91a2.853 2.853 0 0 0 2.811 2.834c4.832.042 9.532.034 14.314.034z" class="cls-1" transform="translate(-81.374 -7.598)"/>
        <path id="Path_10" d="M36.707 99.668a2.68 2.68 0 0 1-3.893.167l-3.739-3.472a2.89 2.89 0 0 1-.171-4.135C44.669 77.016 41.6 79.379 41.068 58.51a2.906 2.906 0 0 1 2.782-3l5.1-.175a2.958 2.958 0 0 1 3.041 2.8c.1 2.13.338 7.11.409 11.745.226 15.263-6.056 19.92-15.693 29.788z" class="cls-2" transform="translate(0 -14.314)"/>
        <path id="Path_11" d="M193.673 70.445a2.855 2.855 0 0 0 2.853 2.88h5.054a2.928 2.928 0 0 0 2.92-2.88c.138-20.01.121-28.054 0-46.1a2.929 2.929 0 0 0-2.92-2.88h-5.054a2.858 2.858 0 0 0-2.853 2.88c.117 18.034.127 27.224 0 46.1z" class="cls-1" transform="translate(-69.953 -.004)"/>
        <path id="Path_12" d="M168.185 121.079a6.773 6.773 0 1 0 6.788 6.773 6.78 6.78 0 0 0-6.788-6.773z" class="cls-1" transform="translate(-56.316 -42.093)"/>
        <path id="Path_13" d="M140.8 121.079a6.773 6.773 0 1 0 6.788 6.773 6.78 6.78 0 0 0-6.788-6.773z" class="cls-1" transform="translate(-44.745 -42.093)"/>
        <path id="Path_14" d="M203.085 119.051a1.313 1.313 0 0 0-1.315 1.313c0 1.18.021 2.372.021 3.556a5.305 5.305 0 1 0 2.565 4.843c0-4.7.05-5.722.05-8.4a1.32 1.32 0 0 0-1.321-1.312zm-4.077 6.589a2.81 2.81 0 1 1-2.865 2.809 2.838 2.838 0 0 1 2.865-2.809z" class="cls-1" transform="translate(-69.959 -41.237)"/>
        <path id="Path_15" d="M230.992 127.437a1.237 1.237 0 0 1 2.473 0v2.926a7.1 7.1 0 0 1-1.015 3.651 7.21 7.21 0 0 1-2.757 2.63 1.239 1.239 0 0 1-1.287-.062 7.192 7.192 0 0 1-3.609-6.219v-2.926a1.236 1.236 0 0 1 2.473 0v2.926a4.7 4.7 0 0 0 .648 2.392 4.642 4.642 0 0 0 1.186 1.338 4.68 4.68 0 0 0 1.22-1.346 4.63 4.63 0 0 0 .66-2.388v-2.921z" class="cls-2" transform="translate(-83.104 -44.258)"/>
        <path id="Path_16" d="M249.4 130.6c.886-.013 1.779-.025 2.656-.025a3.009 3.009 0 0 0-5.819 1.009 2.9 2.9 0 0 0 3.07 2.917c.81 0 1.516.013 2.314.029.627.012 1.3.025 1.955.033a5.274 5.274 0 1 1 .761-1.738c-1.675-.013-3.354 0-5.025 0a1.11 1.11 0 0 1-1.257-1.113c-.006-.504.361-1.112 1.345-1.112z" class="cls-1" transform="translate(-91.209 -44.316)"/>
        <path id="Path_17" d="M266.348 130.346c0 1.78-.016 3.564-.016 5.343a1.241 1.241 0 0 0 2.481 0c0-1.809.009-3.622.009-5.431a1.323 1.323 0 0 1 1.324-1.321 1.234 1.234 0 1 0 0-2.468 3.8 3.8 0 0 0-2.686 1.109 3.766 3.766 0 0 0-1.112 2.768z" class="cls-1" transform="translate(-100.653 -44.371)"/>
        <path id="Path_18" d="M218.818 135.618a1.224 1.224 0 0 1-2.447-.025c0-2.671.012-5.347.012-8.019a1.223 1.223 0 1 1 2.431-.033c.004 2.559.004 5.527.004 8.077z" class="cls-1" transform="translate(-79.543 -44.258)"/>
        <path id="Path_19" d="M217.333 119.073a1.475 1.475 0 1 0 1.483 1.475 1.478 1.478 0 0 0-1.483-1.475z" class="cls-1" transform="translate(-79.323 -41.246)"/>
    </g>
</svg>
